<svg xmlns="http://www.w3.org/2000/svg" viewBox="0 0 232 131" style="enable-background:new 0 0 232 131" xml:space="preserve"><path d="M145 36.5c15.3 0 27.9 11.1 27.9 25.8 0 9-3.7 15.9-8.7 15.9-3.4 0-5.7-2.4-5.7-5.4 0-3.1 2.7-4.5 2.7-10.1 0-9.4-7.3-15.6-16.1-15.6-8.5 0-15.3 6.5-15.3 15.1 0 9.6 6.9 13.7 18.3 17.5 13.1 4.3 24.8 9.8 24.8 25.7 0 14.3-11.2 25.4-27 25.4-15.2 0-27.8-10.9-27.8-25 0-4.8 2.7-6.9 5.8-6.9 3.1 0 5.7 2 5.8 6 .1 8.8 7.2 15.4 16 15.4 9.3 0 15.4-6 15.4-13.7 0-8.8-6.8-12.5-18.3-16.2-13.3-4.4-24.6-10.4-24.6-27 0-15.2 11.6-26.9 26.8-26.9zM25.8.1c14.5 0 26.3 10.1 26.6 24 .1 3.9-2.7 6.1-5.8 6.1-3 0-5.6-2.2-5.7-5.8-.1-7.9-6.8-13.7-15.2-13.7-7.9 0-13.8 5.6-13.8 13.2 0 8.3 5.6 12 17.1 16.2 12.3 4.5 23.6 9.8 23.6 25.5 0 13.7-10.7 24.7-25.6 24.7C12.2 90.3.2 80 .2 66c0-8.7 4.2-14.8 8.3-14.8 3.5 0 5.7 2.3 5.7 5.4 0 2.7-2.3 3.9-2.3 8.8 0 8.7 7 14.3 15 14.3 8.4 0 14-5.8 14-12.9 0-8.7-5.6-12.4-17.1-16.4C10.9 45.8.2 40.2.2 24.9.2 11 11.3.1 25.8.1zm59.5 36.4c16 0 27.2 12 27.2 28.3v19.8c0 3.4-2.7 5.7-5.8 5.7-3.3 0-6-2.3-6-5.7V65.2c0-10.7-6.1-18.1-15.7-18.1-8.5 0-15.3 7.2-15.3 16.4 0 8.6 6.6 15.9 15 15.9 3.1 0 4.5-.8 6.4-.8 2.6 0 5.3 2.2 5.3 5.3 0 4.2-5 6.4-11.5 6.4-14.6 0-26.8-11.8-26.8-26.8 0-15.4 12.3-27 27.2-27zm120.2 0c15 0 26.4 10.5 26.4 23.8 0 5.2-3.7 8.3-9.6 8.3h-15.6c-3.1 0-5.4-2.2-5.4-5 0-2.7 2.3-4.9 5.4-4.9h11.7c1.1 0 1.9-.5 1.9-1.6 0-3.9-5-10.1-14.4-10.1-8.7 0-15.7 7.5-15.7 16.4 0 9.1 7.2 16.3 16.1 16.3 10.3 0 13.7-6.1 17.9-6.1 3.5 0 5.4 2.3 5.4 4.9 0 2.4-1.6 4.6-5.7 7.2-4.1 2.6-10.2 4.6-17.7 4.6-15.2 0-27.6-12-27.6-26.9s12-26.9 26.9-26.9z" style="fill-rule:evenodd;clip-rule:evenodd;fill:#00d639"/></svg>